<?xml version="1.0" standalone="no"?><!DOCTYPE svg PUBLIC "-//W3C//DTD SVG 1.1//EN" "http://www.w3.org/Graphics/SVG/1.1/DTD/svg11.dtd"><svg t="1564906904553" class="icon" viewBox="0 0 1024 1024" version="1.1" xmlns="http://www.w3.org/2000/svg" p-id="1247" xmlns:xlink="http://www.w3.org/1999/xlink" width="200" height="200"><defs><style type="text/css"></style></defs><path d="M20 553h949v431H20z" fill="#FF9999" p-id="1248"></path><path d="M672 352c-63.3 0-117.9-22.5-143.8-71L128 512h817.9L800 303.7c-29.2 32.8-75.6 48.3-128 48.3z" fill="#FBE7BA" p-id="1249"></path><path d="M64 672h768v64H64v64h768v64H64v96h896V576H64z" fill="#FF9999" p-id="1250"></path><path d="M945.9 512H0v512h1024V512h-78.1zM960 960H64V576h896v384zM528.2 281c-9.6-17.9-15.2-39.4-15.9-64.7L0 512h128l400.2-231z" fill="#FFBB33" p-id="1251"></path><path d="M64 672h768v64H64zM64 800h768v64H64z" fill="#FF5A5A" p-id="1252"></path><path d="M945.9 512h78.1L830.2 235.2c-3.9 28.1-14.5 50.8-30.2 68.5L945.9 512z" fill="#FFBB33" p-id="1253"></path><path d="M672 288c96 0 96-57.8 96-76.8C768 142.4 716.9 64 672 64s-96 78.4-96 147.2c0 19 0 76.8 96 76.8z" fill="#FF5A5A" p-id="1254"></path><path d="M672 352c52.4 0 98.8-15.5 128-48.3 15.7-17.7 26.3-40.4 30.2-68.5 1.1-7.7 1.8-15.6 1.8-24C832 114 760.4 0 672 0S512 114 512 211.2c0 1.7 0.2 3.3 0.2 5.1 0.7 25.3 6.3 46.8 15.9 64.7 26 48.5 80.6 71 143.9 71z m0-288c44.9 0 96 78.4 96 147.2 0 19 0 76.8-96 76.8s-96-57.8-96-76.8C576 142.4 627.1 64 672 64z" fill="#E54848" p-id="1255"></path></svg>